<svg xmlns="http://www.w3.org/2000/svg" viewBox="0 0 24 24" id="website">
  <defs>
    <linearGradient id="a" x1="5.109" x2="18.891" y1="18.891" y2="5.109" gradientUnits="userSpaceOnUse">
      <stop offset="0" stop-color="#5433ff"></stop>
      <stop offset="1" stop-color="#20bdff"></stop>
    </linearGradient>
  </defs>
  <path fill="url(#a)" d="m12,2.25C6.624,2.25,2.25,6.624,2.25,12s4.374,9.75,9.75,9.75,9.75-4.374,9.75-9.75S17.376,2.25,12,2.25Zm0,18c-1.099,0-2.284-1.737-2.872-4.5h5.745c-.589,2.763-1.774,4.5-2.872,4.5Zm-3.117-6c-.083-.707-.133-1.456-.133-2.25s.05-1.543.133-2.25h6.235c.083.707.133,1.456.133,2.25s-.05,1.543-.133,2.25h-6.235Zm-5.133-2.25c0-.781.116-1.534.32-2.25h3.301c-.077.719-.121,1.469-.121,2.25s.044,1.531.121,2.25h-3.301c-.204-.716-.32-1.469-.32-2.25ZM12,3.75c1.099,0,2.284,1.737,2.872,4.5h-5.745c.589-2.763,1.774-4.5,2.872-4.5Zm4.629,6h3.301c.204.716.32,1.469.32,2.25s-.116,1.534-.32,2.25h-3.301c.077-.719.121-1.469.121-2.25s-.044-1.531-.121-2.25Zm2.71-1.5h-2.93c-.301-1.572-.791-2.915-1.419-3.931,1.885.737,3.432,2.144,4.349,3.931Zm-10.329-3.931c-.628,1.016-1.118,2.359-1.419,3.931h-2.93c.917-1.787,2.464-3.194,4.349-3.931Zm-4.349,11.431h2.93c.301,1.572.791,2.915,1.419,3.931-1.885-.737-3.432-2.144-4.349-3.931Zm10.329,3.931c.628-1.016,1.118-2.359,1.419-3.931h2.93c-.917,1.787-2.464,3.194-4.349,3.931Z"></path>
</svg>
